<svg xmlns="http://www.w3.org/2000/svg" width="16" height="15.921" viewBox="0 0 16 15.921"><defs><style>.a{fill:#777;}</style></defs><g transform="translate(0 1.589)"><path class="a" d="M285.78,48.258H272.59a1.445,1.445,0,0,1-1.4-1.479V35.4a1.445,1.445,0,0,1,1.4-1.479h13.19a1.445,1.445,0,0,1,1.4,1.479V46.779A1.445,1.445,0,0,1,285.78,48.258ZM272.59,34.926a.453.453,0,0,0-.4.479V46.779a.453.453,0,0,0,.4.479h13.19a.452.452,0,0,0,.4-.479V35.4a.452.452,0,0,0-.4-.479Z" transform="translate(-271.185 -33.926)"/></g><g transform="translate(3.303)"><g transform="translate(7.894)"><path class="a" d="M283.132,36.108a.75.75,0,0,1-.75-.75V33.087a.75.75,0,0,1,1.5,0v2.271A.75.75,0,0,1,283.132,36.108Z" transform="translate(-282.382 -32.337)"/></g><g transform="translate(3.947)"><path class="a" d="M279.185,36.108a.75.75,0,0,1-.75-.75V33.087a.75.75,0,0,1,1.5,0v2.271A.75.75,0,0,1,279.185,36.108Z" transform="translate(-278.435 -32.337)"/></g><path class="a" d="M275.238,36.108a.75.75,0,0,1-.75-.75V33.087a.75.75,0,0,1,1.5,0v2.271A.75.75,0,0,1,275.238,36.108Z" transform="translate(-274.488 -32.337)"/></g><g transform="translate(2.691 5.092)"><path class="a" d="M274.376,39a.5.5,0,0,1-.5-.5v-.571a.5.5,0,0,1,1,0V38.5A.5.5,0,0,1,274.376,39Z" transform="translate(-273.876 -37.429)"/></g><g transform="translate(5.099 5.092)"><path class="a" d="M276.784,39a.5.5,0,0,1-.5-.5v-.571a.5.5,0,0,1,1,0V38.5A.5.5,0,0,1,276.784,39Z" transform="translate(-276.284 -37.429)"/></g><g transform="translate(7.506 5.092)"><path class="a" d="M279.191,39a.5.5,0,0,1-.5-.5v-.571a.5.5,0,0,1,1,0V38.5A.5.5,0,0,1,279.191,39Z" transform="translate(-278.691 -37.429)"/></g><g transform="translate(9.915 5.092)"><path class="a" d="M281.6,39a.5.5,0,0,1-.5-.5v-.571a.5.5,0,0,1,1,0V38.5A.5.5,0,0,1,281.6,39Z" transform="translate(-281.1 -37.429)"/></g><g transform="translate(2.691 10.847)"><path class="a" d="M274.376,44.764a.5.5,0,0,1-.5-.5v-.58a.5.5,0,1,1,1,0v.58A.5.5,0,0,1,274.376,44.764Z" transform="translate(-273.876 -43.184)"/></g><g transform="translate(5.099 10.847)"><path class="a" d="M276.784,44.764a.5.5,0,0,1-.5-.5v-.58a.5.5,0,1,1,1,0v.58A.5.5,0,0,1,276.784,44.764Z" transform="translate(-276.284 -43.184)"/></g><g transform="translate(7.506 10.847)"><path class="a" d="M279.191,44.764a.5.5,0,0,1-.5-.5v-.58a.5.5,0,1,1,1,0v.58A.5.5,0,0,1,279.191,44.764Z" transform="translate(-278.691 -43.184)"/></g><g transform="translate(12.309 5.083)"><path class="a" d="M283.994,38.991a.5.5,0,0,1-.5-.5V37.92a.5.5,0,0,1,1,0v.571A.5.5,0,0,1,283.994,38.991Z" transform="translate(-283.494 -37.42)"/></g><g transform="translate(2.691 7.968)"><path class="a" d="M274.376,41.885a.5.5,0,0,1-.5-.5v-.58a.5.5,0,0,1,1,0v.58A.5.5,0,0,1,274.376,41.885Z" transform="translate(-273.876 -40.305)"/></g><g transform="translate(12.308 7.968)"><path class="a" d="M283.993,41.885a.5.5,0,0,1-.5-.5v-.58a.5.5,0,0,1,1,0v.58A.5.5,0,0,1,283.993,41.885Z" transform="translate(-283.493 -40.305)"/></g><g transform="translate(7.493 7.968)"><path class="a" d="M279.178,41.885a.5.5,0,0,1-.5-.5v-.58a.5.5,0,0,1,1,0v.58A.5.5,0,0,1,279.178,41.885Z" transform="translate(-278.678 -40.305)"/></g><g transform="translate(5.085 7.968)"><path class="a" d="M276.77,41.885a.5.5,0,0,1-.5-.5v-.58a.5.5,0,0,1,1,0v.58A.5.5,0,0,1,276.77,41.885Z" transform="translate(-276.27 -40.305)"/></g><g transform="translate(9.34 7.717)"><path class="a" d="M281.014,40.054h1.171a.483.483,0,0,1,.489.474v1.129a.482.482,0,0,1-.489.472h-1.171a.482.482,0,0,1-.489-.472V40.528a.483.483,0,0,1,.489-.474Z" transform="translate(-280.525 -40.054)"/></g></svg>